<?xml version="1.0" standalone="no"?><!DOCTYPE svg PUBLIC "-//W3C//DTD SVG 1.1//EN" "http://www.w3.org/Graphics/SVG/1.1/DTD/svg11.dtd"><svg t="1548738955013" class="icon" style="" viewBox="0 0 1024 1024" version="1.1" xmlns="http://www.w3.org/2000/svg" p-id="9975" xmlns:xlink="http://www.w3.org/1999/xlink" width="16" height="16"><defs><style type="text/css"></style></defs><path d="M64.528 233.635l-0.054-72.341c0-31.003 26.894-56.136 60.069-56.136h227.589c33.157 0 75.925 20.284 95.467 45.058L512 231.936l-447.472 1.7z m-0.054 42.825H890.24c38.288 0.086 69.285 35.152 69.285 78.377v485.707c0.018 20.759-7.274 40.674-20.27 55.36-12.995 14.685-30.628 22.937-49.015 22.937H133.76c-38.261-0.086-69.248-35.104-69.286-78.297V276.46z m523.588 261.125c0-49.587-27.975-89.823-76.267-89.823s-77.083 41.812-77.083 91.399c0 35.456 14.804 83.257 40.788 107.734v1.103c-45.587 12.345-70.243 38.03-97.758 57.887v41.655h268.516v-41.182c-27.617-19.488-53.755-44.807-98.217-57.518v-2.207c25.728-25.003 40.021-73.697 40.021-109.048z" p-id="9976" fill="#bfbfbf"></path></svg>